# xmcd CD database file
#
# Track frame offsets:
#	150
#	20985
#	32640
#	47845
#	65375
#	86185
#	98880
#	110980
#	123680
#	142485
#	150815
#	169275
#	186515
#	201600
#	210055
#	235225
#
# Disc length: 3256 seconds
#
# Revision: 1
# Processed by: cddbd v1.5.2PL0 Copyright (c) Steve Scherf et al.
# Submitted via: CDex 1.70beta2
#
DISCID=f60cb610
DTITLE=Conway Twitty - Merry Twistmas
DYEAR=1900
DGENRE=
TTITLE0=Santa Claus Is Comin`to Town
TTITLE1=Nine Little Reindeer
TTITLE2=Jingel Bells
TTITLE3=White Christmas
TTITLE4=Christmas is for the Birds
TTITLE5=Johnny Snowman
TTITLE6=Frosty The Snowman
TTITLE7=Winter Wonderland
TTITLE8=Rudolph The Red Nose Reindeer
TTITLE9=Happy The Christmas Clown
TTITLE10=Silver Bells
TTITLE11=Ding-A-Ling,The Christmas Bell
TTITLE12=Kids
TTITLE13=Here Comes Santa Claus
TTITLE14=The NIght Befor Christmas/Up On The House Top/Jolly Ole St. Nicholas
TTITLE15=Silent Night
EXTD=
EXTT0=
EXTT1=
EXTT2=
EXTT3=
EXTT4=
EXTT5=
EXTT6=
EXTT7=
EXTT8=
EXTT9=
EXTT10=
EXTT11=
EXTT12=
EXTT13=
EXTT14=
EXTT15=
PLAYORDER=
